<?xml version="1.0" encoding="iso-8859-1"?>
<!-- Generator: Adobe Illustrator 19.0.0, SVG Export Plug-In . SVG Version: 6.00 Build 0)  -->
<svg version="1.1" id="Layer_1" xmlns="http://www.w3.org/2000/svg" xmlns:xlink="http://www.w3.org/1999/xlink" x="0px" y="0px"
	 viewBox="0 0 318.97 318.97" style="enable-background:new 0 0 318.97 318.97;" xml:space="preserve">
<g>
	<g>
		<path style="fill:#9E6F4C;" d="M303.676,253.523c-11.151-37.754-67.121-33.566-91.279-44.408
			c-24.157-10.842-20.386-47.219-23.449-53.548h-58.932c-3.058,6.329,0.714,42.711-23.449,53.548
			c-24.157,10.842-80.133,6.655-91.279,44.408c-6.149,20.824-5.857,27.193-7.554,50.26c0,0,76.8,15.187,150.014,15.187
			s153.488-15.187,153.488-15.187C309.533,280.71,309.825,274.348,303.676,253.523z"/>
		<path style="fill:#E8C59E;" d="M171.125,220.075l37.765-12.832l0.006-0.006c-20.279-12.635-17.036-45.673-19.942-51.682h-58.938
			c-2.94,6.087,0.427,39.946-20.779,52.182l0.006,0.006l37.563,12.326l12.624,32.526L171.125,220.075z"/>
		<path style="fill:#8E633F;" d="M303.676,253.523c-11.151-37.754-67.121-33.566-91.279-44.408
			c-24.157-10.842-20.386-47.219-23.449-53.548h-31.206c0,0-0.719,51.024,23.438,61.866s80.133,6.655,91.279,44.408
			c5.857,19.83,5.868,26.552,7.324,47.073c19.234-2.816,31.442-5.126,31.442-5.126C309.533,280.71,309.825,274.348,303.676,253.523z
			"/>
		<path style="fill:#DDB58E;" d="M180.242,216.978l28.643-9.729l0.006-0.006c-20.279-12.635-17.036-45.673-19.942-51.682h-31.206
			C157.748,155.567,157.046,205.248,180.242,216.978z"/>
		<path style="fill:#CCA281;" d="M122.085,193.164c9.78,7.959,21.24,15.85,37.338,18.132c16.137-2.288,27.569-10.342,37.36-18.334
			c-8.144-14.973-5.626-32.83-7.83-37.4h-58.938C127.802,160.137,130.269,178.185,122.085,193.164z"/>
		<polygon style="fill:#7F5732;" points="208.89,207.249 194.681,250.87 171.125,220.075 		"/>
		<polygon style="fill:#7F5732;" points="109.237,207.749 123.524,250.87 146.799,220.075 		"/>
		<path style="fill:#8E633F;" d="M146.799,220.075l-25.72-28.536c0,0-3.389,4.817-11.843,16.21l15.091,37.405L146.799,220.075z"/>
		<path style="fill:#8E633F;" d="M171.125,220.075l25.72-28.536c0,0,3.592,4.311,12.045,15.704l-15.294,37.911L171.125,220.075z"/>
		<path style="fill:#7F5732;" d="M176.234,214.41c1.523,1.203,3.17,2.22,4.952,3.024c5.66,2.541,13.062,4.255,21.223,5.874
			l6.481-16.058c-8.453-11.393-12.045-15.704-12.045-15.704L176.234,214.41z"/>
		<circle style="fill:#EAE5DC;" cx="159.485" cy="268.424" r="7.031"/>
		<circle style="fill:#EAE5DC;" cx="159.485" cy="293.368" r="7.031"/>
		<path style="fill:#EAE5DC;" d="M166.488,318.902c0.017-0.191,0.028-0.388,0.028-0.585c0-3.884-3.148-7.031-7.031-7.031
			s-7.031,3.148-7.031,7.031c0,0.214,0.011,0.422,0.028,0.624c1.754,0.017,3.513,0.028,5.266,0.028
			C160.648,318.97,163.566,318.947,166.488,318.902z"/>
		
			<ellipse transform="matrix(-0.177 0.9842 -0.9842 -0.177 385.665 -85.3678)" style="fill:#DDB58E;" cx="228.525" cy="118.563" rx="21.386" ry="11.629"/>
		
			<ellipse transform="matrix(-0.9842 0.177 -0.177 -0.9842 200.0966 219.2908)" style="fill:#E8C59E;" cx="90.267" cy="118.57" rx="11.629" ry="21.386"/>
		<path style="fill:#E8C59E;" d="M223.644,47.371h-64.221H95.236c0,0-35.989,146.614,64.187,160.806
			C259.639,193.984,223.644,47.371,223.644,47.371z"/>
		<path style="fill:#DDB58E;" d="M159.423,208.176C259.639,193.984,223.644,47.37,223.644,47.37H208.62
			c4.114,61.242,9.808,93.774-13.815,129.24C176.088,204.714,159.423,208.176,159.423,208.176z"/>
		<path style="fill:#565656;" d="M234.003,169.501c0-3.895-1.439-7.447-3.816-10.162c1.86-2.552,2.968-5.682,2.968-9.077
			c0-4.817-2.215-9.105-5.677-11.938h-6.919c0.483,1.495,0.759,3.08,0.759,4.738c0,8.532-6.919,15.451-15.451,15.451
			c-0.444,0-0.815-0.011-1.242-0.051c0.006,0.006,0.011,0.011,0.017,0.022c-0.866-0.152-1.754-0.247-2.664-0.247
			c-2.777,0-5.373,0.742-7.627,2.023c-2.816-2.99-6.807-4.873-11.241-4.873c-4.468,0-8.482,1.905-11.303,4.941
			c-2.816-3.805-7.318-6.278-12.416-6.278c-5.092,0-9.6,2.479-12.416,6.278c-2.822-3.03-6.835-4.941-11.303-4.941
			c-4.435,0-8.425,1.877-11.241,4.873c-2.254-1.282-4.851-2.023-7.627-2.023c-0.804,0-1.591,0.079-2.361,0.197
			c0.006-0.011,0.011-0.022,0.022-0.028c-0.427,0.034-0.787,0.051-1.231,0.051c-8.532,0-15.451-6.919-15.451-15.451
			c0-1.636,0.264-3.204,0.742-4.682h-6.947c-3.462,2.833-5.677,7.116-5.677,11.938c0,3.4,1.113,6.531,2.973,9.083
			c-2.378,2.715-3.822,6.267-3.822,10.156c0,5.368,2.737,10.095,6.896,12.866c-1,2.046-1.579,4.345-1.579,6.778
			c0,8.195,6.385,14.883,14.456,15.4c0.511,8.071,7.2,14.467,15.406,14.467c1.107,0,2.192-0.124,3.232-0.343
			c1.675,6.722,7.734,11.708,14.979,11.708c2.878,0,5.559-0.798,7.863-2.17c2.704,4.496,7.61,7.509,13.237,7.509
			s10.533-3.018,13.237-7.509c2.304,1.366,4.985,2.17,7.863,2.17c7.239,0,13.304-4.985,14.979-11.708
			c1.045,0.225,2.125,0.343,3.232,0.343c8.2,0,14.889-6.391,15.406-14.467c8.066-0.517,14.456-7.206,14.456-15.4
			c0-2.434-0.579-4.727-1.579-6.778C231.266,179.595,234.003,174.869,234.003,169.501z"/>
		<path style="fill:#565656;" d="M229.091,36.781C213.522,2.125,183.699,0,159.384,0S105.24,2.125,89.671,36.781
			c-3.35,7.453-3.535,27.732-3.535,44.487c0,26.316,3.502,33.887,3.502,33.887l6.16,1.647c2.698-22.038,3.721-51.08,3.783-52.845
			c3.535,3.035,8.127,4.873,13.152,4.873c3.519,0,6.823-0.899,9.707-2.479c3.71,4.53,9.341,7.425,15.659,7.425
			c3.282,0,6.379-0.787,9.122-2.175c3.395,2.58,7.633,4.12,12.225,4.12c4.598,0,8.83-1.534,12.225-4.12
			c2.743,1.388,5.84,2.175,9.122,2.175c6.312,0,11.949-2.895,15.659-7.425c2.883,1.579,6.188,2.479,9.707,2.479
			c4.963,0,9.51-1.793,13.029-4.761c0.09,2.597,1.124,31.06,3.777,52.738l6.16-1.647c0,0,3.502-7.577,3.502-33.887
			C232.626,64.519,232.441,44.234,229.091,36.781z"/>
	</g>
</g>
<g>
</g>
<g>
</g>
<g>
</g>
<g>
</g>
<g>
</g>
<g>
</g>
<g>
</g>
<g>
</g>
<g>
</g>
<g>
</g>
<g>
</g>
<g>
</g>
<g>
</g>
<g>
</g>
<g>
</g>
</svg>
