<?xml version="1.0" encoding="iso-8859-1"?>
<!-- Generator: Adobe Illustrator 19.0.0, SVG Export Plug-In . SVG Version: 6.00 Build 0)  -->
<svg version="1.1" id="Layer_1" xmlns="http://www.w3.org/2000/svg" xmlns:xlink="http://www.w3.org/1999/xlink" x="0px" y="0px"
	 viewBox="0 0 318.543 318.543" style="enable-background:new 0 0 318.543 318.543;" xml:space="preserve">
<g>
	<g>
		<path style="fill:#2F3233;" d="M159.195,207.749c-65.536,0-85.928-10.376-85.928-10.376c25.939-33.263,2.765-61.737-1.512-89.789
			C65.095,63.923,77.697,0,157.948,0c51.918,0,71.112,22.898,78.273,32.875c16.395,22.837,16.238,68.881,3.091,103.92
			c-11.702,31.183,4.159,58.213,4.159,58.213S224.732,207.749,159.195,207.749z"/>
		<path style="fill:#E8C59E;" d="M295.389,253.096c-10.522-37.754-63.361-33.566-86.164-44.408
			c-22.803-10.842-19.245-47.219-22.134-53.548h-55.638c-2.889,6.329,0.674,42.711-22.134,53.548
			c-22.803,10.842-75.642,6.655-86.164,44.408c-5.806,20.824-5.525,27.187-7.133,50.26c0,0,72.5,15.187,141.611,15.187
			s144.888-15.187,144.888-15.187C300.919,280.283,301.195,273.921,295.389,253.096z"/>
		<path style="fill:#DDB58E;" d="M179.761,217.001c22.803,10.842,75.642,6.655,86.164,44.408c5.531,19.83,5.542,26.552,6.913,47.073
			c18.155-2.816,29.682-5.126,29.682-5.126c-1.602-23.067-1.326-29.435-7.133-50.26c-10.522-37.754-63.361-33.566-86.164-44.408
			c-22.803-10.842-19.245-47.219-22.134-53.548h-29.458C157.633,155.14,156.953,206.164,179.761,217.001z"/>
		<path style="fill:#D15852;" d="M61.661,311.056c26.675,3.76,61.737,7.487,95.972,7.487c35.326,0,72.388-3.968,100.187-7.846
			c13.383-11.792,33.156-14.361,44.201-14.81c-1.124-17.283-1.506-24.405-6.632-42.79c-9.724-34.887-55.582-33.96-80.482-42.171
			c3.058,17.874,12.36,95.14-55.363,95.14c-67.97,0-58.359-77.829-55.335-95.331c-24.764,8.42-71.253,7.211-81.049,42.363
			c-5.12,18.374-5.508,25.495-6.632,42.767C27.566,296.257,48.065,298.758,61.661,311.056z"/>
		<path style="fill:#C65044;" d="M295.389,253.096c-9.724-34.887-55.582-33.96-80.482-42.171c0.573,3.361,1.371,8.83,1.832,15.485
			c21.207,4.761,42.852,12.292,49.186,35.005c4.89,17.536,5.463,24.821,6.481,40.452c10.747-4.407,22.168-5.677,29.615-5.98
			C300.897,278.597,300.515,271.476,295.389,253.096z"/>
		<path style="fill:#CCA281;" d="M123.971,192.737c9.229,7.959,20.054,15.85,35.241,18.132
			c15.237-2.288,26.023-10.342,35.269-18.334c-7.689-14.973-5.311-32.83-7.391-37.4h-55.638
			C129.367,159.71,131.694,177.758,123.971,192.737z"/>
		<g>
			
				<ellipse transform="matrix(-0.177 0.9842 -0.9842 -0.177 380.1026 -81.5687)" style="fill:#DDB58E;" cx="224.155" cy="118.137" rx="21.386" ry="11.629"/>
			
				<ellipse transform="matrix(-0.9842 0.177 -0.177 -0.9842 207.8556 217.7438)" style="fill:#E8C59E;" cx="94.216" cy="118.143" rx="11.629" ry="21.386"/>
			<path style="fill:#E8C59E;" d="M159.735,56.161c0,0-65.874-7.487-66.683,11.927c-0.793,19.02,0.124,21.712-0.028,26.181
				c-1.551,44.156,7.464,104.645,66.171,113.48c62.979-9.476,68.808-77.969,65.727-122.456
				C223.389,63.142,159.735,56.161,159.735,56.161z"/>
			<path style="fill:#DDB58E;" d="M159.195,207.749c94.331-14.192,60.45-160.806,60.45-160.806h-14.141
				c3.873,61.242,9.229,93.774-13.006,129.24C174.883,204.287,159.195,207.749,159.195,207.749z"/>
			<path style="fill:#DDB58E;" d="M91.709,96.989c0,0,37.248,10.123,67.565-19.009c0,0,19.408,26.209,66.216,19.133V60.905H91.709
				V96.989z"/>
			<path style="fill:#2F3233;" d="M228.076,52.266c-8.538-26.355-68.869-31.925-68.881-31.925l0,0l0,0l0,0l0,0
				c-0.011,0-60.343,5.57-68.881,31.925c-8.538,26.361,1.394,44.723,1.394,44.723c20.234,2.383,48.354-4.817,67.487-24.304
				c19.138,19.492,46.055,26.816,66.29,24.433C225.485,97.119,236.614,78.627,228.076,52.266z"/>
			<path style="fill:#E0605C;" d="M91.709,76.395c0,0,23.517-20.234,67.492-20.234s67.391,20.234,67.391,20.234
				s-16.727-38.979-67.391-38.979S91.709,76.395,91.709,76.395z"/>
		</g>
	</g>
</g>
<g>
</g>
<g>
</g>
<g>
</g>
<g>
</g>
<g>
</g>
<g>
</g>
<g>
</g>
<g>
</g>
<g>
</g>
<g>
</g>
<g>
</g>
<g>
</g>
<g>
</g>
<g>
</g>
<g>
</g>
</svg>
