<?xml version="1.0" encoding="utf-8"?>
<!-- Generator: Adobe Illustrator 24.0.0, SVG Export Plug-In . SVG Version: 6.00 Build 0)  -->
<svg version="1.1" id="Layer_1" xmlns="http://www.w3.org/2000/svg" xmlns:xlink="http://www.w3.org/1999/xlink" x="0px" y="0px"
	 viewBox="0 0 275 30" style="enable-background:new 0 0 275 30;" xml:space="preserve">
<style type="text/css">
	.st0{fill:#0A4563;}
	.st1{fill:#97C73E;}
	.st2{fill:#797A7C;}
</style>
<g>
	<polygon class="st0" points="41.85,2.98 41.85,13.39 42.54,13.39 54.66,3.01 59.44,2.98 45.39,14.27 60.76,27.05 55.98,27.05 
		41.85,15.2 41.85,27.05 38.66,27.05 38.66,2.98 	"/>
	<polygon class="st0" points="65.39,27.05 65.39,2.98 68.59,2.98 68.59,24.38 84.3,24.38 84.3,27.05 	"/>
	<polygon class="st0" points="108.08,2.98 108.08,5.44 92.12,5.44 92.12,13.18 106.86,13.18 106.86,15.6 95.28,15.6 92.12,13.82 
		92.12,24.38 108.08,24.38 108.08,27.05 88.93,27.05 88.93,2.98 	"/>
	<path class="st0" d="M146.94,2.95v16.5c0,1.37,0.53,2.53,1.59,3.48c1.06,0.96,2.34,1.43,3.84,1.43h6.02c1.51,0,2.8-0.48,3.87-1.43
		c1.06-0.95,1.59-2.11,1.59-3.48V2.95h3.17v17.07c-0.06,1.95-0.83,3.61-2.32,4.99c-1.47,1.37-3.29,2.05-5.46,2.05h-7.69
		c-2.15,0-3.99-0.68-5.53-2.05c-1.51-1.37-2.27-3.03-2.27-4.99V2.95H146.94z"/>
	<g>
		<path class="st1" d="M4.56,25.32c-0.33,0.51-0.22,1.18,0.29,1.53c0.51,0.36,1.21,0.22,1.55-0.29l8.2-11.86l8.16,11.86
			c0.35,0.5,1.04,0.63,1.55,0.29c0.51-0.34,0.64-1.03,0.29-1.53l-9.08-13.2l-0.92-1.33l-0.92,1.33L4.56,25.32z"/>
		<path class="st1" d="M7.24,13.63c-0.32,0.51-0.21,1.19,0.3,1.53c0.5,0.34,1.2,0.21,1.55-0.29l5.52-7.99l5.49,7.96
			c0.35,0.56,1.1,0.66,1.59,0.31c0.5-0.36,0.61-1.04,0.26-1.55l-6.42-9.3L14.6,2.97l-0.92,1.33L7.24,13.63z"/>
	</g>
	<polygon class="st0" points="135.93,2.95 126.11,24.14 116.29,2.95 112.75,2.95 123.9,27.05 128.29,27.05 139.46,2.95 	"/>
</g>
<g>
	<path class="st2" d="M191.92,14.04c0,0.95-0.16,1.83-0.48,2.63c-0.32,0.8-0.77,1.49-1.34,2.06c-0.58,0.58-1.27,1.02-2.08,1.34
		c-0.81,0.32-1.71,0.48-2.7,0.48h-4.96V7.53h4.96c0.99,0,1.89,0.16,2.7,0.48c0.81,0.32,1.5,0.77,2.08,1.34
		c0.58,0.57,1.02,1.26,1.34,2.06C191.76,12.21,191.92,13.08,191.92,14.04z M189.44,14.04c0-0.71-0.09-1.35-0.28-1.92
		c-0.19-0.57-0.46-1.05-0.82-1.44c-0.36-0.39-0.79-0.69-1.3-0.91c-0.51-0.21-1.08-0.31-1.71-0.31h-2.53v9.16h2.53
		c0.64,0,1.21-0.11,1.71-0.32c0.51-0.21,0.94-0.51,1.3-0.9c0.36-0.39,0.63-0.87,0.82-1.44C189.34,15.39,189.44,14.75,189.44,14.04z"
		/>
	<path class="st2" d="M195.29,16.21c0.04,0.47,0.12,0.88,0.25,1.23c0.13,0.34,0.31,0.63,0.52,0.85c0.22,0.23,0.47,0.39,0.77,0.5
		c0.3,0.11,0.63,0.17,0.99,0.17s0.67-0.04,0.93-0.13s0.49-0.18,0.68-0.28c0.2-0.1,0.37-0.19,0.51-0.28
		c0.15-0.08,0.29-0.13,0.43-0.13c0.19,0,0.32,0.07,0.41,0.21l0.64,0.81c-0.25,0.29-0.52,0.53-0.83,0.72
		c-0.31,0.2-0.63,0.35-0.96,0.47s-0.67,0.2-1.02,0.25c-0.34,0.05-0.68,0.07-1,0.07c-0.64,0-1.24-0.11-1.79-0.32
		c-0.55-0.21-1.03-0.53-1.44-0.95s-0.73-0.93-0.96-1.55c-0.23-0.61-0.35-1.33-0.35-2.14c0-0.63,0.1-1.22,0.31-1.78
		c0.2-0.55,0.5-1.04,0.88-1.45c0.38-0.41,0.85-0.74,1.4-0.98c0.55-0.24,1.17-0.36,1.86-0.36c0.58,0,1.12,0.09,1.61,0.28
		c0.49,0.19,0.92,0.46,1.27,0.81c0.35,0.36,0.63,0.79,0.83,1.31c0.2,0.52,0.3,1.11,0.3,1.78c0,0.34-0.04,0.56-0.11,0.68
		c-0.07,0.12-0.21,0.18-0.41,0.18H195.29z M199.53,14.86c0-0.29-0.04-0.56-0.12-0.81s-0.2-0.48-0.37-0.67
		c-0.16-0.19-0.37-0.34-0.62-0.45c-0.25-0.11-0.54-0.17-0.87-0.17c-0.64,0-1.15,0.18-1.52,0.55c-0.37,0.37-0.6,0.89-0.71,1.56
		H199.53z"/>
	<path class="st2" d="M211.29,11.31l-3.66,9.23h-2.02l-3.66-9.23h1.84c0.17,0,0.31,0.04,0.42,0.12c0.11,0.08,0.18,0.18,0.22,0.3
		l1.78,4.93c0.1,0.29,0.18,0.57,0.25,0.85s0.13,0.55,0.19,0.83c0.06-0.28,0.13-0.55,0.2-0.83c0.07-0.28,0.16-0.56,0.26-0.85
		l1.82-4.93c0.04-0.12,0.12-0.22,0.23-0.3c0.11-0.08,0.24-0.12,0.39-0.12H211.29z"/>
	<path class="st2" d="M213.89,16.21c0.04,0.47,0.12,0.88,0.25,1.23c0.13,0.34,0.31,0.63,0.52,0.85c0.22,0.23,0.47,0.39,0.77,0.5
		c0.3,0.11,0.63,0.17,0.99,0.17s0.67-0.04,0.93-0.13s0.49-0.18,0.68-0.28c0.2-0.1,0.37-0.19,0.51-0.28
		c0.15-0.08,0.29-0.13,0.43-0.13c0.19,0,0.32,0.07,0.41,0.21l0.64,0.81c-0.25,0.29-0.52,0.53-0.83,0.72
		c-0.31,0.2-0.63,0.35-0.96,0.47s-0.67,0.2-1.02,0.25c-0.34,0.05-0.68,0.07-1,0.07c-0.64,0-1.24-0.11-1.79-0.32
		c-0.55-0.21-1.03-0.53-1.44-0.95s-0.73-0.93-0.96-1.55c-0.23-0.61-0.35-1.33-0.35-2.14c0-0.63,0.1-1.22,0.31-1.78
		c0.2-0.55,0.5-1.04,0.88-1.45c0.38-0.41,0.85-0.74,1.4-0.98c0.55-0.24,1.17-0.36,1.86-0.36c0.58,0,1.12,0.09,1.61,0.28
		c0.49,0.19,0.92,0.46,1.27,0.81c0.35,0.36,0.63,0.79,0.83,1.31c0.2,0.52,0.3,1.11,0.3,1.78c0,0.34-0.04,0.56-0.11,0.68
		c-0.07,0.12-0.21,0.18-0.41,0.18H213.89z M218.13,14.86c0-0.29-0.04-0.56-0.12-0.81s-0.2-0.48-0.37-0.67
		c-0.16-0.19-0.37-0.34-0.62-0.45c-0.25-0.11-0.54-0.17-0.87-0.17c-0.64,0-1.15,0.18-1.52,0.55c-0.37,0.37-0.6,0.89-0.71,1.56
		H218.13z"/>
	<path class="st2" d="M224.04,7.17v13.37h-2.22V7.17H224.04z"/>
	<path class="st2" d="M230.35,11.17c0.68,0,1.31,0.11,1.87,0.33c0.56,0.22,1.04,0.54,1.44,0.95c0.4,0.41,0.71,0.91,0.92,1.49
		c0.22,0.59,0.32,1.25,0.32,1.97c0,0.73-0.11,1.39-0.32,1.98s-0.52,1.09-0.92,1.5c-0.4,0.41-0.88,0.73-1.44,0.95
		c-0.56,0.22-1.18,0.33-1.87,0.33c-0.69,0-1.32-0.11-1.88-0.33c-0.56-0.22-1.04-0.54-1.44-0.95s-0.71-0.92-0.93-1.5
		s-0.33-1.25-0.33-1.98c0-0.73,0.11-1.38,0.33-1.97c0.22-0.59,0.53-1.09,0.93-1.49c0.4-0.41,0.88-0.72,1.44-0.95
		C229.03,11.28,229.66,11.17,230.35,11.17z M230.35,18.97c0.77,0,1.34-0.26,1.71-0.77c0.37-0.52,0.55-1.27,0.55-2.27
		c0-1-0.18-1.76-0.55-2.28c-0.37-0.52-0.94-0.78-1.71-0.78c-0.78,0-1.36,0.26-1.73,0.79c-0.38,0.53-0.56,1.28-0.56,2.27
		c0,0.99,0.19,1.75,0.56,2.26C228.99,18.71,229.57,18.97,230.35,18.97z"/>
	<path class="st2" d="M238.71,12.57c0.38-0.43,0.81-0.77,1.29-1.04c0.48-0.26,1.04-0.4,1.69-0.4c0.5,0,0.96,0.11,1.38,0.32
		s0.78,0.51,1.08,0.91c0.3,0.4,0.54,0.89,0.7,1.48s0.25,1.25,0.25,2.01c0,0.69-0.09,1.33-0.28,1.92c-0.19,0.59-0.45,1.1-0.8,1.53
		c-0.34,0.43-0.76,0.77-1.25,1.01s-1.04,0.36-1.64,0.36c-0.52,0-0.96-0.08-1.32-0.24s-0.69-0.38-0.98-0.66v3.78h-2.22V11.31h1.36
		c0.29,0,0.48,0.14,0.57,0.41L238.71,12.57z M238.83,18.15c0.25,0.31,0.53,0.52,0.82,0.65s0.62,0.19,0.97,0.19
		c0.34,0,0.64-0.06,0.91-0.19c0.27-0.13,0.5-0.32,0.69-0.58c0.19-0.26,0.33-0.58,0.44-0.98c0.1-0.39,0.15-0.86,0.15-1.39
		c0-0.54-0.04-1-0.13-1.37c-0.09-0.38-0.21-0.68-0.37-0.91c-0.16-0.23-0.36-0.41-0.59-0.51c-0.23-0.11-0.49-0.16-0.79-0.16
		c-0.46,0-0.85,0.1-1.18,0.29s-0.63,0.47-0.92,0.82V18.15z"/>
	<path class="st2" d="M248.54,16.21c0.04,0.47,0.12,0.88,0.25,1.23c0.13,0.34,0.31,0.63,0.52,0.85c0.22,0.23,0.47,0.39,0.77,0.5
		c0.3,0.11,0.63,0.17,0.99,0.17s0.67-0.04,0.93-0.13s0.49-0.18,0.68-0.28c0.2-0.1,0.37-0.19,0.51-0.28
		c0.15-0.08,0.29-0.13,0.43-0.13c0.19,0,0.32,0.07,0.41,0.21l0.64,0.81c-0.25,0.29-0.52,0.53-0.83,0.72
		c-0.31,0.2-0.63,0.35-0.96,0.47s-0.67,0.2-1.02,0.25c-0.34,0.05-0.68,0.07-1,0.07c-0.64,0-1.24-0.11-1.79-0.32
		c-0.55-0.21-1.03-0.53-1.44-0.95s-0.73-0.93-0.96-1.55c-0.23-0.61-0.35-1.33-0.35-2.14c0-0.63,0.1-1.22,0.31-1.78
		c0.2-0.55,0.5-1.04,0.88-1.45c0.38-0.41,0.85-0.74,1.4-0.98c0.55-0.24,1.17-0.36,1.86-0.36c0.58,0,1.12,0.09,1.61,0.28
		c0.49,0.19,0.92,0.46,1.27,0.81c0.35,0.36,0.63,0.79,0.83,1.31c0.2,0.52,0.3,1.11,0.3,1.78c0,0.34-0.04,0.56-0.11,0.68
		c-0.07,0.12-0.21,0.18-0.41,0.18H248.54z M252.78,14.86c0-0.29-0.04-0.56-0.12-0.81s-0.2-0.48-0.37-0.67
		c-0.16-0.19-0.37-0.34-0.62-0.45c-0.25-0.11-0.54-0.17-0.87-0.17c-0.64,0-1.15,0.18-1.52,0.55c-0.37,0.37-0.6,0.89-0.71,1.56
		H252.78z"/>
	<path class="st2" d="M258.54,12.91c0.29-0.55,0.63-0.99,1.03-1.3c0.4-0.31,0.86-0.47,1.4-0.47c0.43,0,0.77,0.09,1.03,0.28
		l-0.14,1.67c-0.03,0.11-0.07,0.18-0.13,0.23c-0.06,0.04-0.13,0.07-0.23,0.07c-0.09,0-0.22-0.01-0.4-0.04
		c-0.18-0.03-0.35-0.04-0.52-0.04c-0.25,0-0.46,0.04-0.66,0.11c-0.19,0.07-0.37,0.18-0.52,0.31c-0.15,0.14-0.29,0.3-0.41,0.49
		c-0.12,0.19-0.23,0.41-0.33,0.66v5.69h-2.22v-9.23h1.31c0.23,0,0.39,0.04,0.48,0.12s0.15,0.23,0.18,0.44L258.54,12.91z"/>
	<path class="st2" d="M268.76,13.11c-0.06,0.1-0.12,0.16-0.19,0.2s-0.15,0.06-0.25,0.06c-0.11,0-0.22-0.03-0.35-0.09
		c-0.12-0.06-0.27-0.13-0.43-0.2c-0.16-0.07-0.35-0.14-0.55-0.2s-0.45-0.09-0.73-0.09c-0.44,0-0.78,0.09-1.03,0.28
		c-0.25,0.19-0.37,0.43-0.37,0.73c0,0.2,0.06,0.36,0.19,0.5c0.13,0.14,0.3,0.25,0.51,0.36c0.21,0.1,0.46,0.19,0.72,0.27
		c0.27,0.08,0.54,0.17,0.82,0.26c0.28,0.1,0.55,0.21,0.82,0.33c0.27,0.12,0.51,0.28,0.72,0.47c0.21,0.19,0.38,0.42,0.51,0.68
		s0.19,0.58,0.19,0.95c0,0.44-0.08,0.85-0.24,1.23s-0.39,0.7-0.71,0.97c-0.31,0.27-0.7,0.49-1.16,0.64
		c-0.46,0.15-0.99,0.23-1.59,0.23c-0.32,0-0.63-0.03-0.93-0.08c-0.3-0.06-0.59-0.14-0.87-0.24c-0.28-0.1-0.54-0.22-0.77-0.36
		s-0.45-0.29-0.63-0.45l0.51-0.85c0.07-0.1,0.14-0.18,0.23-0.23c0.09-0.05,0.2-0.08,0.34-0.08c0.14,0,0.27,0.04,0.39,0.12
		c0.12,0.08,0.26,0.16,0.43,0.25s0.35,0.17,0.57,0.25c0.22,0.08,0.5,0.12,0.83,0.12c0.26,0,0.49-0.03,0.68-0.09
		c0.19-0.06,0.34-0.15,0.47-0.25c0.12-0.1,0.21-0.22,0.27-0.36c0.06-0.13,0.08-0.27,0.08-0.42c0-0.22-0.06-0.39-0.19-0.53
		c-0.13-0.14-0.3-0.26-0.51-0.36s-0.46-0.19-0.73-0.27c-0.27-0.08-0.55-0.17-0.84-0.27s-0.56-0.21-0.84-0.34
		c-0.27-0.13-0.52-0.29-0.73-0.49c-0.21-0.2-0.38-0.44-0.51-0.73s-0.19-0.64-0.19-1.04c0-0.38,0.08-0.74,0.22-1.08
		c0.15-0.34,0.37-0.64,0.66-0.9s0.65-0.46,1.09-0.61c0.43-0.15,0.94-0.23,1.51-0.23c0.64,0,1.21,0.1,1.74,0.31
		c0.52,0.21,0.96,0.49,1.31,0.83L268.76,13.11z"/>
</g>
</svg>
