<svg width="13" height="14" viewBox="0 0 13 14" xmlns="http://www.w3.org/2000/svg">
<path d="M0.0488281 9.42578C0.0488281 8.74609 0.167969 8.12891 0.40625 7.57422C0.644531 7.01953 0.96875 6.57812 1.37891 6.25C1.78906 5.91797 2.25 5.75195 2.76172 5.75195H3.77539C4.0957 5.36133 4.38867 4.99219 4.6543 4.64453C4.92383 4.29297 5.17383 3.95117 5.4043 3.61914C5.63867 3.28711 5.85352 2.95898 6.04883 2.63477C6.24805 2.30664 6.43555 1.97266 6.61133 1.63281C6.80664 1.25781 7.01367 0.988281 7.23242 0.824219C7.45508 0.65625 7.7168 0.572266 8.01758 0.572266C8.29102 0.572266 8.5332 0.636719 8.74414 0.765625C8.95898 0.890625 9.12891 1.06445 9.25391 1.28711C9.37891 1.50586 9.44141 1.75781 9.44141 2.04297C9.44141 2.33203 9.39258 2.63086 9.29492 2.93945C9.20117 3.24414 9.0918 3.54102 8.9668 3.83008C8.8457 4.11914 8.73633 4.38281 8.63867 4.62109C8.54492 4.85547 8.49414 5.04688 8.48633 5.19531C8.48633 5.24609 8.50195 5.28516 8.5332 5.3125C8.56836 5.33984 8.61328 5.35352 8.66797 5.35352H10.7891C11.0898 5.35352 11.3594 5.42578 11.5977 5.57031C11.8398 5.71094 12.0312 5.90234 12.1719 6.14453C12.3164 6.38672 12.3887 6.6582 12.3887 6.95898C12.3887 7.31836 12.3047 7.62891 12.1367 7.89062C12.1914 7.99219 12.2344 8.10938 12.2656 8.24219C12.2969 8.375 12.3125 8.50977 12.3125 8.64648C12.3125 8.85742 12.2773 9.05859 12.207 9.25C12.1367 9.44141 12.0352 9.60742 11.9023 9.74805C11.9844 9.93555 12.0254 10.1465 12.0254 10.3809C12.0254 10.8848 11.8223 11.2988 11.416 11.623C11.4355 11.6855 11.4492 11.7461 11.457 11.8047C11.4648 11.8672 11.4688 11.9316 11.4688 11.998C11.4688 12.3652 11.3457 12.6895 11.0996 12.9707C10.8535 13.252 10.5215 13.4414 10.1035 13.5391C9.89648 13.5938 9.64062 13.6328 9.33594 13.6562C9.03125 13.6797 8.69336 13.6914 8.32227 13.6914H7.53125C7.02734 13.6914 6.54883 13.6367 6.0957 13.5273C5.64648 13.4219 5.23047 13.2715 4.84766 13.0762H2.97852C2.56445 13.0762 2.17969 12.9805 1.82422 12.7891C1.47266 12.5977 1.16211 12.334 0.892578 11.998C0.626953 11.6621 0.419922 11.2754 0.271484 10.8379C0.123047 10.3965 0.0488281 9.92578 0.0488281 9.42578ZM3.59375 9.37891C3.59375 10.0156 3.75977 10.5801 4.0918 11.0723C4.42383 11.5605 4.88867 11.9434 5.48633 12.2207C6.08789 12.498 6.78711 12.6387 7.58398 12.6426H8.26953C8.62109 12.6426 8.92969 12.6328 9.19531 12.6133C9.46094 12.5977 9.67578 12.5684 9.83984 12.5254C10.0312 12.4746 10.1719 12.4023 10.2617 12.3086C10.3516 12.2188 10.3965 12.1133 10.3965 11.9922C10.3965 11.9258 10.3887 11.8672 10.373 11.8164C10.3613 11.7656 10.3242 11.6641 10.2617 11.5117C10.2227 11.4258 10.2168 11.3398 10.2441 11.2539C10.2715 11.1641 10.3301 11.0918 10.4199 11.0371C10.7754 10.8535 10.9531 10.6328 10.9531 10.375C10.9531 10.2852 10.9375 10.2051 10.9062 10.1348C10.875 10.0605 10.8281 9.96484 10.7656 9.84766C10.7109 9.73047 10.6973 9.61914 10.7246 9.51367C10.7559 9.4082 10.8203 9.32031 10.918 9.25C11.0312 9.16406 11.1152 9.07227 11.1699 8.97461C11.2246 8.87305 11.252 8.76562 11.252 8.65234C11.252 8.55078 11.2344 8.45898 11.1992 8.37695C11.1641 8.29102 11.1055 8.18945 11.0234 8.07227C10.9609 7.99805 10.9316 7.91406 10.9355 7.82031C10.9434 7.72266 10.9863 7.63672 11.0645 7.5625C11.1621 7.46484 11.2305 7.37305 11.2695 7.28711C11.3125 7.20117 11.334 7.09766 11.334 6.97656C11.334 6.8125 11.2793 6.67578 11.1699 6.56641C11.0605 6.45703 10.9238 6.40234 10.7598 6.40234H8.7207C8.3457 6.40234 8.03516 6.30078 7.78906 6.09766C7.54688 5.89453 7.42578 5.62109 7.42578 5.27734C7.42578 5.04688 7.47266 4.79297 7.56641 4.51562C7.66406 4.23828 7.77539 3.95508 7.90039 3.66602C8.0293 3.37305 8.14258 3.0918 8.24023 2.82227C8.33789 2.55273 8.38672 2.3125 8.38672 2.10156C8.38672 1.96484 8.35352 1.85938 8.28711 1.78516C8.2207 1.71094 8.13477 1.67383 8.0293 1.67383C7.93555 1.67383 7.85352 1.70312 7.7832 1.76172C7.71289 1.82031 7.63281 1.94141 7.54297 2.125C7.25781 2.69531 6.94336 3.23047 6.59961 3.73047C6.25977 4.23047 5.91797 4.69922 5.57422 5.13672C5.23438 5.57422 4.91992 5.98438 4.63086 6.36719C4.37695 6.71484 4.17383 7.04102 4.02148 7.3457C3.86914 7.64648 3.75977 7.96094 3.69336 8.28906C3.62695 8.61328 3.59375 8.97656 3.59375 9.37891ZM1.08594 9.42578C1.08594 9.89844 1.16992 10.332 1.33789 10.7266C1.50586 11.1211 1.72852 11.4375 2.00586 11.6758C2.2832 11.9141 2.58594 12.0391 2.91406 12.0508C3.02344 12.0508 3.13086 12.0508 3.23633 12.0508C3.3418 12.0547 3.44727 12.0566 3.55273 12.0566C3.22852 11.6934 2.97852 11.2871 2.80273 10.8379C2.62695 10.3848 2.53906 9.89844 2.53906 9.37891C2.53906 8.88672 2.58398 8.43164 2.67383 8.01367C2.76758 7.5918 2.91406 7.18555 3.11328 6.79492C3.04297 6.79492 2.96875 6.79492 2.89062 6.79492C2.81641 6.79492 2.74414 6.79688 2.67383 6.80078C2.39258 6.8125 2.13086 6.9375 1.88867 7.17578C1.64648 7.41016 1.45117 7.72461 1.30273 8.11914C1.1582 8.50977 1.08594 8.94531 1.08594 9.42578Z" fill="currentColor"/>
</svg>
