<svg width="12" height="14" viewBox="0 0 12 14" xmlns="http://www.w3.org/2000/svg">
<path d="M11.9844 5.00195C11.9844 5.64648 11.8711 6.23438 11.6445 6.76562C11.418 7.29688 11.1133 7.7207 10.7305 8.03711C10.3516 8.35352 9.92969 8.51172 9.46484 8.51172H8.39258C8.05664 8.91797 7.75195 9.30078 7.47852 9.66016C7.20508 10.0195 6.95312 10.3652 6.72266 10.6973C6.49609 11.0254 6.28516 11.3477 6.08984 11.6641C5.89844 11.9844 5.7168 12.3105 5.54492 12.6426C5.36133 12.9941 5.16797 13.2461 4.96484 13.3984C4.76562 13.5547 4.52734 13.6328 4.25 13.6328C3.99609 13.6328 3.77148 13.5742 3.57617 13.457C3.38086 13.3438 3.22656 13.1836 3.11328 12.9766C3 12.7734 2.94336 12.541 2.94336 12.2793C2.94336 11.9941 2.99219 11.6973 3.08984 11.3887C3.1875 11.0762 3.29883 10.7754 3.42383 10.4863C3.55273 10.1934 3.66406 9.92578 3.75781 9.68359C3.85547 9.44141 3.9043 9.24414 3.9043 9.0918C3.9043 9.03711 3.88477 8.99609 3.8457 8.96875C3.80664 8.9375 3.75586 8.92188 3.69336 8.92188H1.55469C1.27344 8.92188 1.01758 8.85547 0.787109 8.72266C0.560547 8.58594 0.380859 8.4043 0.248047 8.17773C0.115234 7.94727 0.0488281 7.68945 0.0488281 7.4043C0.0488281 7.05664 0.132812 6.76172 0.300781 6.51953C0.246094 6.41797 0.201172 6.30078 0.166016 6.16797C0.134766 6.03125 0.119141 5.89844 0.119141 5.76953C0.119141 5.5625 0.154297 5.36523 0.224609 5.17773C0.298828 4.99023 0.402344 4.83008 0.535156 4.69727C0.449219 4.50977 0.40625 4.29688 0.40625 4.05859C0.40625 3.57031 0.607422 3.17188 1.00977 2.86328C0.990234 2.80078 0.974609 2.73633 0.962891 2.66992C0.955078 2.60352 0.951172 2.53516 0.951172 2.46484C0.951172 2.11719 1.06445 1.81641 1.29102 1.5625C1.52148 1.30469 1.83398 1.12891 2.22852 1.03516C2.43164 0.984375 2.67969 0.947266 2.97266 0.923828C3.26953 0.900391 3.59375 0.888672 3.94531 0.888672H4.73047C5.23438 0.888672 5.70898 0.945313 6.1543 1.05859C6.59961 1.16797 7.00977 1.32031 7.38477 1.51562H9.25391C9.62891 1.51562 9.98047 1.60742 10.3086 1.79102C10.6367 1.97461 10.9258 2.22656 11.1758 2.54688C11.4297 2.86719 11.627 3.23828 11.7676 3.66016C11.9121 4.08203 11.9844 4.5293 11.9844 5.00195ZM8.68555 5.03125C8.68555 4.39453 8.51758 3.83008 8.18164 3.33789C7.84961 2.8457 7.38086 2.45898 6.77539 2.17773C6.17383 1.89648 5.4707 1.75391 4.66602 1.75H3.93945C3.61914 1.75 3.32812 1.75977 3.06641 1.7793C2.80859 1.79883 2.5957 1.83008 2.42773 1.87305C2.22461 1.92773 2.07227 2.00586 1.9707 2.10742C1.87305 2.20898 1.82422 2.32813 1.82422 2.46484C1.82422 2.53516 1.83203 2.60156 1.84766 2.66406C1.86719 2.72266 1.91016 2.83789 1.97656 3.00977C2.00781 3.07227 2.01367 3.13086 1.99414 3.18555C1.97852 3.23633 1.93945 3.2793 1.87695 3.31445C1.47461 3.52539 1.27344 3.77344 1.27344 4.05859C1.27344 4.16016 1.29102 4.25195 1.32617 4.33398C1.36133 4.41211 1.41406 4.51758 1.48438 4.65039C1.52734 4.73633 1.53711 4.81641 1.51367 4.89062C1.49023 4.96484 1.44336 5.02734 1.37305 5.07812C1.24414 5.17969 1.14648 5.28711 1.08008 5.40039C1.01758 5.51367 0.986328 5.63672 0.986328 5.76953C0.986328 5.87891 1.00781 5.98242 1.05078 6.08008C1.09375 6.17383 1.16016 6.28906 1.25 6.42578C1.29297 6.48047 1.3125 6.53711 1.30859 6.5957C1.30469 6.65039 1.27539 6.70117 1.2207 6.74805C1.11133 6.85742 1.0332 6.96094 0.986328 7.05859C0.939453 7.15625 0.916016 7.27148 0.916016 7.4043C0.916016 7.5918 0.976562 7.74805 1.09766 7.87305C1.21875 7.99414 1.37109 8.05469 1.55469 8.05469H3.57031C3.90625 8.05469 4.18945 8.14844 4.41992 8.33594C4.6543 8.51953 4.77148 8.77148 4.77148 9.0918C4.77148 9.31445 4.72266 9.5625 4.625 9.83594C4.53125 10.1055 4.41992 10.3848 4.29102 10.6738C4.16602 10.9629 4.05469 11.2441 3.95703 11.5176C3.85938 11.7949 3.81055 12.0488 3.81055 12.2793C3.81055 12.4355 3.84766 12.5547 3.92188 12.6367C4 12.7227 4.09766 12.7656 4.21484 12.7656C4.31641 12.7656 4.4082 12.7305 4.49023 12.6602C4.57227 12.5938 4.66602 12.4551 4.77148 12.2441C5.05273 11.6816 5.36133 11.1543 5.69727 10.6621C6.03711 10.166 6.375 9.70312 6.71094 9.27344C7.05078 8.84375 7.36328 8.43945 7.64844 8.06055C7.90234 7.7168 8.10547 7.39258 8.25781 7.08789C8.41016 6.7832 8.51953 6.4668 8.58594 6.13867C8.65234 5.81055 8.68555 5.44141 8.68555 5.03125ZM11.1172 5.00195C11.1172 4.5293 11.0293 4.0957 10.8535 3.70117C10.6816 3.30273 10.4531 2.98438 10.168 2.74609C9.88672 2.50781 9.58203 2.38867 9.25391 2.38867C9.12891 2.38867 9.00391 2.38867 8.87891 2.38867C8.75391 2.38867 8.62891 2.38867 8.50391 2.38867C8.83984 2.73633 9.09766 3.13672 9.27734 3.58984C9.46094 4.03906 9.55273 4.52539 9.55273 5.04883C9.55273 5.54102 9.50391 5.99805 9.40625 6.41992C9.3125 6.8418 9.16211 7.25 8.95508 7.64453C9.04102 7.64453 9.125 7.64453 9.20703 7.64453C9.29297 7.64453 9.37891 7.64453 9.46484 7.64453C9.75391 7.64453 10.0234 7.52539 10.2734 7.28711C10.5273 7.04883 10.7305 6.73047 10.8828 6.33203C11.0391 5.92969 11.1172 5.48633 11.1172 5.00195Z" fill="currentColor" />
</svg>
