<svg width="230" height="34" viewBox="0 0 230 34" fill="none" xmlns="http://www.w3.org/2000/svg">
<path d="M53.1972 0.626465V14.8H54.1878L71.2766 0.626465H77.9635L58.2 16.0492L79.8457 33.4899H73.1093L53.1972 17.2984V33.4899H48.7393V0.626465H53.1972Z" fill="#0A4563"/>
<path d="M86.3848 33.4899V0.626465H90.8922V29.8384H113.033V33.4899H86.3848Z" fill="#0A4563"/>
<path d="M146.517 0.626465V3.94164H124.029V14.5598H144.784V17.875H128.487L124.029 15.4246V29.8384H146.517V33.4899H119.522V0.626465H146.517Z" fill="#0A4563"/>
<path d="M201.251 0.578613V23.1121C201.251 24.9859 201.994 26.5714 203.48 27.8687C204.966 29.1659 206.798 29.8386 208.879 29.8386H217.349C219.479 29.8386 221.311 29.1659 222.797 27.8687C224.283 26.5714 225.026 24.9859 225.026 23.1121V0.578613H229.484V23.8809C229.385 26.5714 228.295 28.8296 226.215 30.7034C224.135 32.5772 221.609 33.49 218.538 33.49H207.69C204.668 33.49 202.093 32.5772 199.913 30.7034C197.783 28.8296 196.743 26.5714 196.743 23.8809V0.578613H201.251Z" fill="#0A4563"/>
<path d="M0.692889 31.1359C0.247096 31.8086 0.395687 32.7695 1.08914 33.25C1.83213 33.7304 2.77326 33.5382 3.26859 32.8656L14.8097 16.6741L26.3013 32.8656C26.7966 33.5382 27.7873 33.7304 28.4807 33.25C29.1742 32.7695 29.3723 31.8566 28.877 31.1359L16.0975 13.1187L14.8097 11.293L13.5218 13.1187L0.692889 31.1359Z" fill="#97C73E"/>
<path d="M4.45705 15.1365C4.01125 15.8092 4.15985 16.7701 4.85331 17.2505C5.54677 17.731 6.53742 17.5388 7.03274 16.8662L14.8094 5.95975L22.5365 16.8181C23.0318 17.5869 24.072 17.731 24.7654 17.2505C25.4589 16.7701 25.6075 15.8092 25.1122 15.1365L16.0972 2.40435L14.8094 0.578613L13.5215 2.40435L4.45705 15.1365Z" fill="#97C73E"/>
<path d="M185.747 0.578613L171.878 29.5022L158.058 0.578613H153.105L168.807 33.49H174.949L190.7 0.578613H185.747Z" fill="#0A4563"/>
</svg>
